<?xml version="1.0" encoding="utf-8"?>
<!-- Generator: Adobe Illustrator 18.0.0, SVG Export Plug-In . SVG Version: 6.00 Build 0)  -->
<!DOCTYPE svg PUBLIC "-//W3C//DTD SVG 1.1//EN" "http://www.w3.org/Graphics/SVG/1.1/DTD/svg11.dtd">
<svg version="1.1" id="Layer_1" xmlns="http://www.w3.org/2000/svg" xmlns:xlink="http://www.w3.org/1999/xlink" x="0px" y="0px"
	 viewBox="0 0 1633.5 560" enable-background="new 0 0 1633.5 560" xml:space="preserve">
<g>
	<g>
		<path fill="#FFFFFF" d="M313.1,198c-14-11.9-36.4-17.9-67.1-17.9h-70.6V380H220v-55.8h26.6c29.6,0,51.5-5.7,65.9-17.2
			c14.4-11.4,21.6-29.5,21.6-54.2C334.1,228.2,327.1,209.9,313.1,198z M280.4,276.6c-5.3,6-15.4,9-30.3,9h-30v-67.2h25.5
			c14.7,0,25.5,2.4,32.5,7.3c7,4.9,10.4,13.1,10.4,24.6C288.4,261.8,285.7,270.6,280.4,276.6z M387.9,80h-280c-11,0-20,9-20,20v360
			c0,11,9,20,20,20h280c11,0,20-9,20-20V100C407.9,89,399,80,387.9,80z M399.9,460c0,6.6-5.4,12-12,12h-280c-6.6,0-12-5.4-12-12V100
			c0-6.6,5.4-12,12-12h280c6.6,0,12,5.4,12,12V460z M247.9,420c-11,0-20,9-20,20s9,20,20,20s20-9,20-20S259,420,247.9,420z
			 M207.9,120h80c5.5,0,10-4.5,10-10s-4.5-10-10-10h-80c-5.5,0-10,4.5-10,10S202.4,120,207.9,120z"/>
	</g>
</g>
<g>
	<path fill="#FFFFFF" d="M597.2,212.8c11,9.2,16.5,23.3,16.5,42.4c0,19.1-5.6,33.1-16.8,41.9c-11.2,8.9-28.4,13.3-51.5,13.3h-28
		v46.2h-26.6V199h54.1C568.8,199,586.2,203.6,597.2,212.8z M578.4,277.8c5.3-5.6,8-13.9,8-24.8c0-10.9-3.4-18.6-10.1-23.1
		c-6.8-4.5-17.4-6.8-31.8-6.8h-27.1v63.1h30.9C563,286.3,573.1,283.5,578.4,277.8z"/>
	<path fill="#FFFFFF" d="M630.8,212.8c-3.2-3.2-4.7-6.9-4.7-11.3c0-4.4,1.6-8.1,4.7-11.3c3.2-3.2,6.9-4.7,11.3-4.7
		c4.4,0,8.1,1.6,11.3,4.7c3.2,3.2,4.7,6.9,4.7,11.3c0,4.4-1.6,8.1-4.7,11.3c-3.2,3.2-6.9,4.7-11.3,4.7
		C637.7,217.5,634,215.9,630.8,212.8z M654.5,356.6h-25.3v-120h25.3V356.6z"/>
	<path fill="#FFFFFF" d="M704.8,236.7l25.7,39.5l26.6-39.5h30l-41.9,58.6l43.7,61.3h-31.1l-28.6-39.9l-28,39.9h-29.5l42.6-61.1
		l-40.4-58.8H704.8z"/>
	<path fill="#FFFFFF" d="M803.3,212.8c-3.2-3.2-4.7-6.9-4.7-11.3c0-4.4,1.6-8.1,4.7-11.3c3.2-3.2,6.9-4.7,11.3-4.7
		c4.4,0,8.1,1.6,11.3,4.7c3.2,3.2,4.7,6.9,4.7,11.3c0,4.4-1.6,8.1-4.7,11.3c-3.2,3.2-6.9,4.7-11.3,4.7
		C810.2,217.5,806.5,215.9,803.3,212.8z M827,356.6h-25.3v-120H827V356.6z"/>
	<path fill="#FFFFFF" d="M965.5,307.7h-94c0.6,8.7,4.6,15.7,12,21.1c7.4,5.3,15.8,8,25.3,8c15,0,26.5-4.7,34.3-14.2l14.4,15.8
		c-12.9,13.4-29.8,20.1-50.5,20.1c-16.8,0-31.2-5.6-43-16.8c-11.8-11.2-17.7-26.2-17.7-45.1c0-18.9,6-33.9,18-45
		c12-11.1,26.2-16.7,42.5-16.7c16.3,0,30.2,4.9,41.6,14.8c11.4,9.8,17.1,23.4,17.1,40.7V307.7z M871.5,287.8h68.8
		c0-10.1-3.2-17.8-9.5-23.2s-14.1-8.1-23.3-8.1c-9.2,0-17.6,2.8-24.9,8.5C875.2,270.6,871.5,278.2,871.5,287.8z"/>
	<path fill="#FFFFFF" d="M1049.6,356.6V199h26.6v132.4h71.9v25.3H1049.6z"/>
	<path fill="#FFFFFF" d="M1264.8,356.6h-23v-16c-9.9,11.9-23.2,17.8-39.9,17.8c-12.5,0-22.8-3.5-31-10.6
		c-8.2-7.1-12.3-16.5-12.3-28.3c0-11.8,4.4-20.6,13.1-26.5c8.7-5.9,20.5-8.8,35.4-8.8h32.7v-4.5c0-15.9-8.9-23.9-26.6-23.9
		c-11.1,0-22.7,4.1-34.7,12.2l-11.3-15.8c14.6-11.6,31.1-17.4,49.6-17.4c14.1,0,25.7,3.6,34.6,10.7c8.9,7.1,13.4,18.4,13.4,33.7
		V356.6z M1239.5,312v-10.1h-28.4c-18.2,0-27.3,5.7-27.3,17.1c0,5.9,2.3,10.3,6.8,13.4c4.5,3.1,10.8,4.6,18.8,4.6
		c8,0,15.1-2.3,21.1-6.8C1236.5,325.7,1239.5,319.6,1239.5,312z"/>
	<path fill="#FFFFFF" d="M1355,234.9c16.1,0,29.8,5.6,41.3,16.7c11.4,11.1,17.1,25.9,17.1,44.4c0,18.5-5.7,33.5-17,45.1
		c-11.4,11.6-24.6,17.4-39.7,17.4s-28.7-6.6-40.7-19.8v18h-25.3V189.3h25.3v68.3C1325.9,242.5,1338.9,234.9,1355,234.9z
		 M1315.5,296.9c0,11.4,3.5,20.8,10.4,28.1c6.9,7.3,15.3,10.9,25.3,10.9s18.6-3.6,25.9-10.8c7.4-7.2,11-16.6,11-28.1
		c0-11.5-3.6-21-10.8-28.6c-7.2-7.6-15.9-11.4-25.9-11.4c-10.1,0-18.6,3.8-25.5,11.4C1319,275.9,1315.5,285.4,1315.5,296.9z"/>
	<path fill="#FFFFFF" d="M1517.7,320.8c0,11.4-4.1,20.6-12.4,27.4c-8.3,6.8-18.9,10.3-31.8,10.3c-8.7,0-17.8-1.6-27.2-4.7
		c-9.4-3.2-17.7-7.6-24.9-13.3l12.2-19.6c14,10.5,27.5,15.8,40.6,15.8c5.7,0,10.2-1.3,13.5-3.9c3.3-2.6,5-6,5-10
		c0-6-8-11.4-23.9-16.2c-1.2-0.5-2.1-0.8-2.7-0.9c-25-6.8-37.4-18-37.4-33.8c0-11.1,4.3-20,13-26.7c8.6-6.7,19.9-10,33.7-10
		c13.8,0,26.9,4.1,39.2,12.2l-9.5,18.7c-9.8-6.5-20.4-9.7-31.8-9.7c-6,0-10.9,1.1-14.7,3.3c-3.8,2.2-5.6,5.5-5.6,9.8
		c0,3.9,2,6.8,5.9,8.6c2.7,1.4,6.5,2.6,11.4,3.8c4.9,1.2,9.2,2.4,13,3.6c3.8,1.2,7.4,2.6,10.9,4.1c3.5,1.5,7.3,3.6,11.4,6.3
		C1513.6,300.9,1517.7,309.3,1517.7,320.8z"/>
</g>
</svg>
